<svg width="35" height="35" viewBox="0 0 35 35" fill="none" xmlns="http://www.w3.org/2000/svg">
<path d="M17.4787 1.70604e-05C15.7166 -0.00369558 14.016 0.598666 12.7076 1.68996C11.3992 2.78126 10.5765 4.28348 10.3995 5.90449C10.2225 7.52551 10.7039 9.14944 11.7501 10.4605C12.7962 11.7715 14.3323 12.676 16.0597 12.998V16.6227H9.91057C8.78152 16.6227 7.69872 17.0374 6.90036 17.7755C6.102 18.5137 5.65349 19.5149 5.65349 20.5588V22.0038C3.93506 22.335 2.41013 23.2427 1.37283 24.5521C0.335528 25.8614 -0.140655 27.4795 0.0361275 29.0942C0.21291 30.709 1.03013 32.206 2.33017 33.2966C3.63021 34.3871 5.32096 34.994 7.0763 35C8.83807 35.0028 10.538 34.3998 11.8457 33.3083C13.1534 32.2167 13.9754 30.7145 14.1519 29.0938C14.3283 27.473 13.8467 25.8495 12.8006 24.5388C11.7544 23.2281 10.2186 22.324 8.49155 22.002V20.5588C8.49155 20.2108 8.64105 19.8771 8.90717 19.6311C9.17329 19.385 9.53422 19.2468 9.91057 19.2468H25.0469C25.4232 19.2468 25.7842 19.385 26.0503 19.6311C26.3164 19.8771 26.4659 20.2108 26.4659 20.5588V22.0038C24.7475 22.335 23.2225 23.2427 22.1852 24.5521C21.1479 25.8614 20.6717 27.4795 20.8485 29.0942C21.0253 30.709 21.8425 32.206 23.1426 33.2966C24.4426 34.3871 26.1334 34.994 27.8887 35C29.6505 35.0028 31.3504 34.3998 32.6581 33.3083C33.9658 32.2167 34.7878 30.7145 34.9643 29.0938C35.1408 27.473 34.6591 25.8495 33.613 24.5388C32.5668 23.2281 31.031 22.324 29.304 22.002V20.5588C29.304 19.5149 28.8554 18.5137 28.0571 17.7755C27.2587 17.0374 26.1759 16.6227 25.0469 16.6227H18.8977V12.998C20.6179 12.6686 22.145 11.7616 23.1841 10.4521C24.2233 9.14266 24.7008 7.52358 24.5243 5.90763C24.3479 4.29168 23.5301 2.79349 22.2289 1.70244C20.9277 0.611382 19.2353 0.00486041 17.4787 1.70604e-05V1.70604e-05ZM13.2179 6.56371C13.2179 5.51886 13.6668 4.51681 14.4658 3.77798C15.2649 3.03916 16.3487 2.6241 17.4787 2.6241C18.6088 2.6241 19.6925 3.03916 20.4916 3.77798C21.2907 4.51681 21.7396 5.51886 21.7396 6.56371C21.7396 7.60857 21.2907 8.61062 20.4916 9.34945C19.6925 10.0883 18.6088 10.5033 17.4787 10.5033C16.3487 10.5033 15.2649 10.0883 14.4658 9.34945C13.6668 8.61062 13.2179 7.60857 13.2179 6.56371V6.56371ZM2.81544 28.4363C2.81544 27.9188 2.92567 27.4064 3.13985 26.9283C3.35402 26.4503 3.66795 26.0159 4.06369 25.6499C4.45944 25.284 4.92926 24.9938 5.44632 24.7958C5.96339 24.5977 6.51758 24.4958 7.07725 24.4958C7.63692 24.4958 8.19111 24.5977 8.70817 24.7958C9.22524 24.9938 9.69506 25.284 10.0908 25.6499C10.4866 26.0159 10.8005 26.4503 11.0147 26.9283C11.2288 27.4064 11.3391 27.9188 11.3391 28.4363C11.3391 29.4814 10.8901 30.4837 10.0908 31.2226C9.29156 31.9616 8.20755 32.3768 7.07725 32.3768C5.94695 32.3768 4.86294 31.9616 4.06369 31.2226C3.26445 30.4837 2.81544 29.4814 2.81544 28.4363V28.4363ZM27.8887 24.4949C28.4484 24.4949 29.0026 24.5968 29.5196 24.7949C30.0367 24.9929 30.5065 25.2832 30.9023 25.6491C31.298 26.015 31.6119 26.4494 31.8261 26.9275C32.0403 27.4055 32.1505 27.9179 32.1505 28.4354C32.1505 28.9529 32.0403 29.4653 31.8261 29.9434C31.6119 30.4215 31.298 30.8559 30.9023 31.2218C30.5065 31.5877 30.0367 31.8779 29.5196 32.076C29.0026 32.274 28.4484 32.3759 27.8887 32.3759C26.7584 32.3759 25.6744 31.9608 24.8751 31.2218C24.0759 30.4828 23.6269 29.4805 23.6269 28.4354C23.6269 27.3903 24.0759 26.3881 24.8751 25.6491C25.6744 24.9101 26.7584 24.4949 27.8887 24.4949V24.4949Z" fill="#085E7D"/>
</svg>
