<svg width="35" height="35" viewBox="0 0 35 35" fill="none" xmlns="http://www.w3.org/2000/svg">
<path d="M22.3195 13.6111C24.01 13.6111 25.382 15.1356 25.382 17.0139V26.2481C25.382 28.5692 24.5521 30.7953 23.075 32.4366C21.5978 34.0779 19.5943 35 17.5053 35C15.4162 35 13.4127 34.0779 11.9355 32.4366C10.4584 30.7953 9.6285 28.5692 9.6285 26.2481V17.0139C9.6285 15.1356 10.9987 13.6111 12.691 13.6111H22.3195V13.6111ZM8.97925 13.6111C8.34893 14.4539 7.9698 15.4935 7.89425 16.5861L7.87675 17.0139V26.2481C7.87675 27.895 8.21275 29.4544 8.81125 30.8467C7.77399 31.155 6.68681 31.1941 5.63377 30.961C4.58072 30.7279 3.59004 30.2289 2.73831 29.5024C1.88658 28.776 1.19663 27.8416 0.721811 26.7715C0.246991 25.7015 2.15246e-05 24.5244 0 23.3314V17.0139C2.8708e-05 16.1599 0.289049 15.3372 0.80969 14.709C1.33033 14.0808 2.04452 13.693 2.8105 13.6228L3.0625 13.6111H8.97925V13.6111ZM26.0312 13.6111H31.9375C33.628 13.6111 35 15.1356 35 17.0139V23.3333C35.0002 24.5256 34.7538 25.702 34.2797 26.7715C33.8056 27.8411 33.1165 28.7753 32.2657 29.5018C31.415 30.2284 30.4252 30.7279 29.373 30.9617C28.3208 31.1956 27.2344 31.1576 26.1975 30.8506C26.7225 29.6294 27.0445 28.2839 27.1163 26.8606L27.132 26.2481V17.0139C27.132 15.7208 26.719 14.5347 26.0295 13.6111H26.0312ZM17.5 0C18.8924 0 20.2277 0.614582 21.2123 1.70854C22.1969 2.80251 22.75 4.28624 22.75 5.83333C22.75 7.38043 22.1969 8.86416 21.2123 9.95812C20.2277 11.0521 18.8924 11.6667 17.5 11.6667C16.1076 11.6667 14.7723 11.0521 13.7877 9.95812C12.8031 8.86416 12.25 7.38043 12.25 5.83333C12.25 4.28624 12.8031 2.80251 13.7877 1.70854C14.7723 0.614582 16.1076 0 17.5 0V0ZM28.875 1.94444C30.0353 1.94444 31.1481 2.4566 31.9686 3.36823C32.7891 4.27987 33.25 5.51631 33.25 6.80556C33.25 8.0948 32.7891 9.33124 31.9686 10.2429C31.1481 11.1545 30.0353 11.6667 28.875 11.6667C27.7147 11.6667 26.6019 11.1545 25.7814 10.2429C24.9609 9.33124 24.5 8.0948 24.5 6.80556C24.5 5.51631 24.9609 4.27987 25.7814 3.36823C26.6019 2.4566 27.7147 1.94444 28.875 1.94444ZM6.125 1.94444C7.28532 1.94444 8.39812 2.4566 9.21859 3.36823C10.0391 4.27987 10.5 5.51631 10.5 6.80556C10.5 8.0948 10.0391 9.33124 9.21859 10.2429C8.39812 11.1545 7.28532 11.6667 6.125 11.6667C4.96468 11.6667 3.85188 11.1545 3.03141 10.2429C2.21094 9.33124 1.75 8.0948 1.75 6.80556C1.75 5.51631 2.21094 4.27987 3.03141 3.36823C3.85188 2.4566 4.96468 1.94444 6.125 1.94444V1.94444Z" fill="#085E7D"/>
</svg>
