<svg width="35" height="35" viewBox="0 0 35 35" fill="none" xmlns="http://www.w3.org/2000/svg">
<path d="M10.4197 6.56125C10.4203 5.31929 10.8019 4.10298 11.52 3.05357C12.2381 2.00416 13.2634 1.16471 14.4767 0.632716C15.6901 0.100723 17.0417 -0.101986 18.3746 0.0481324C19.7075 0.19825 20.9671 0.695034 22.0069 1.48079C23.0468 2.26655 23.8243 3.30903 24.2492 4.48717C24.6741 5.66532 24.7289 6.93077 24.4072 8.13658C24.0856 9.34238 23.4008 10.4391 22.4322 11.2992C21.4636 12.1594 20.2511 12.7478 18.9354 12.996V16.6211H25.0829C26.2117 16.6211 27.2942 17.0358 28.0924 17.774C28.8905 18.5123 29.3389 19.5135 29.3389 20.5575V22.0009C31.0583 22.3302 32.5848 23.237 33.6236 24.5462C34.6625 25.8555 35.1401 27.4743 34.9643 29.0901C34.7884 30.706 33.9715 32.2042 32.6713 33.2957C31.3711 34.3871 29.6799 34.9943 27.924 35C26.1621 35.0046 24.4612 34.4028 23.1524 33.3117C21.8436 32.2206 21.0205 30.7182 20.843 29.0967C20.6656 27.4753 21.1466 25.8508 22.1925 24.5393C23.2384 23.2278 24.7744 22.323 26.5016 22.0009V20.5575C26.5016 20.2095 26.3521 19.8758 26.0861 19.6297C25.82 19.3836 25.4592 19.2454 25.0829 19.2454H9.95061C9.57436 19.2454 9.21352 19.3836 8.94747 19.6297C8.68142 19.8758 8.53196 20.2095 8.53196 20.5575V22.0009C10.2513 22.3302 11.7778 23.237 12.8167 24.5462C13.8556 25.8555 14.3332 27.4743 14.1573 29.0901C13.9814 30.706 13.1645 32.2042 11.8644 33.2957C10.5642 34.3871 8.8729 34.9943 7.11708 35C5.35511 35.0046 3.65429 34.4028 2.34549 33.3117C1.0367 32.2206 0.213515 30.7182 0.0360895 29.0967C-0.141336 27.4753 0.33968 25.8508 1.38556 24.5393C2.43145 23.2278 3.96741 22.323 5.69464 22.0009V20.5575C5.69464 19.5135 6.14304 18.5123 6.94119 17.774C7.73934 17.0358 8.82186 16.6211 9.95061 16.6211H16.0981V12.996C14.4949 12.6929 13.0542 11.8869 12.0195 10.7143C10.9848 9.54182 10.4197 8.07475 10.4197 6.56125V6.56125Z" fill="#085E7D"/>
</svg>
