<svg width="35" height="35" viewBox="0 0 35 35" fill="none" xmlns="http://www.w3.org/2000/svg">
<path d="M2.91667 35C2.91667 35 0 35 0 32.0833C0 29.1667 2.91667 20.4167 17.5 20.4167C32.0833 20.4167 35 29.1667 35 32.0833C35 35 32.0833 35 32.0833 35H2.91667ZM17.5 17.5C19.8206 17.5 22.0462 16.5781 23.6872 14.9372C25.3281 13.2962 26.25 11.0706 26.25 8.75C26.25 6.42936 25.3281 4.20376 23.6872 2.56282C22.0462 0.921873 19.8206 0 17.5 0C15.1794 0 12.9538 0.921873 11.3128 2.56282C9.67187 4.20376 8.75 6.42936 8.75 8.75C8.75 11.0706 9.67187 13.2962 11.3128 14.9372C12.9538 16.5781 15.1794 17.5 17.5 17.5V17.5Z" fill="#085E7D"/>
</svg>
