<svg width="35" height="35" viewBox="0 0 35 35" fill="none" xmlns="http://www.w3.org/2000/svg">
<path d="M17.5 17.5C19.8206 17.5 22.0462 16.5781 23.6872 14.9372C25.3281 13.2962 26.25 11.0706 26.25 8.75C26.25 6.42936 25.3281 4.20376 23.6872 2.56282C22.0462 0.921873 19.8206 0 17.5 0C15.1794 0 12.9538 0.921873 11.3128 2.56282C9.67187 4.20376 8.75 6.42936 8.75 8.75C8.75 11.0706 9.67187 13.2962 11.3128 14.9372C12.9538 16.5781 15.1794 17.5 17.5 17.5V17.5ZM23.3333 8.75C23.3333 10.2971 22.7188 11.7808 21.6248 12.8748C20.5308 13.9688 19.0471 14.5833 17.5 14.5833C15.9529 14.5833 14.4692 13.9688 13.3752 12.8748C12.2812 11.7808 11.6667 10.2971 11.6667 8.75C11.6667 7.2029 12.2812 5.71917 13.3752 4.62521C14.4692 3.53125 15.9529 2.91667 17.5 2.91667C19.0471 2.91667 20.5308 3.53125 21.6248 4.62521C22.7188 5.71917 23.3333 7.2029 23.3333 8.75V8.75ZM35 32.0833C35 35 32.0833 35 32.0833 35H2.91667C2.91667 35 0 35 0 32.0833C0 29.1667 2.91667 20.4167 17.5 20.4167C32.0833 20.4167 35 29.1667 35 32.0833ZM32.0833 32.0717C32.0804 31.3542 31.6342 29.1958 29.6567 27.2183C27.755 25.3167 24.1763 23.3333 17.5 23.3333C10.8208 23.3333 7.245 25.3167 5.34333 27.2183C3.36583 29.1958 2.9225 31.3542 2.91667 32.0717H32.0833Z" fill="#085E7D"/>
</svg>
