<svg width="35" height="35" viewBox="0 0 35 35" fill="none" xmlns="http://www.w3.org/2000/svg">
<path d="M22.3195 13.6111C24.01 13.6111 25.382 15.1356 25.382 17.0139V26.2481C25.382 28.5692 24.5521 30.7953 23.075 32.4366C21.5978 34.0779 19.5943 35 17.5053 35C15.4162 35 13.4127 34.0779 11.9355 32.4366C10.4584 30.7953 9.6285 28.5692 9.6285 26.2481V17.0139C9.6285 15.1356 10.9987 13.6111 12.691 13.6111H22.3195ZM22.3195 16.5278H12.691C12.575 16.5278 12.4637 16.579 12.3816 16.6702C12.2996 16.7613 12.2535 16.885 12.2535 17.0139V26.2481C12.2535 27.7957 12.8068 29.2799 13.7917 30.3742C14.7766 31.4685 16.1124 32.0833 17.5053 32.0833C18.8981 32.0833 20.2339 31.4685 21.2188 30.3742C22.2037 29.2799 22.757 27.7957 22.757 26.2481V17.0139C22.757 16.885 22.7109 16.7613 22.6289 16.6702C22.5468 16.579 22.4355 16.5278 22.3195 16.5278ZM3.0625 13.6111H8.97925C8.36185 14.4396 7.98479 15.4565 7.89775 16.5278H3.0625C2.94647 16.5278 2.83519 16.579 2.75314 16.6702C2.67109 16.7613 2.625 16.885 2.625 17.0139V23.3314C2.62489 24.0662 2.77463 24.7914 3.06298 25.4527C3.35132 26.1139 3.77078 26.694 4.28983 27.1492C4.80888 27.6045 5.41404 27.9232 6.05984 28.0813C6.70564 28.2394 7.37529 28.2329 8.0185 28.0622C8.16725 29.0422 8.4385 29.9775 8.81125 30.8467C7.77399 31.155 6.68681 31.1941 5.63377 30.961C4.58072 30.7279 3.59004 30.2289 2.73831 29.5024C1.88658 28.776 1.19663 27.8416 0.721811 26.7715C0.246991 25.7015 2.15246e-05 24.5244 0 23.3314V17.0139C0 15.1356 1.372 13.6111 3.0625 13.6111ZM26.0312 13.6111H31.9375C33.628 13.6111 35 15.1356 35 17.0139V23.3333C35.0002 24.5256 34.7538 25.702 34.2797 26.7715C33.8056 27.8411 33.1165 28.7753 32.2657 29.5018C31.415 30.2284 30.4252 30.7279 29.373 30.9617C28.3209 31.1956 27.2344 31.1576 26.1975 30.8506C26.572 29.9794 26.8432 29.0442 26.9937 28.0642C27.6361 28.2329 28.3046 28.2378 28.949 28.0788C29.5933 27.9197 30.197 27.6006 30.7146 27.1455C31.2323 26.6904 31.6506 26.1111 31.9381 25.4509C32.2256 24.7907 32.375 24.0668 32.375 23.3333V17.0139C32.375 16.885 32.3289 16.7613 32.2469 16.6702C32.1648 16.579 32.0535 16.5278 31.9375 16.5278H27.1128C27.0257 15.4565 26.6487 14.4396 26.0312 13.6111ZM17.5 0C18.8924 0 20.2277 0.614582 21.2123 1.70854C22.1969 2.80251 22.75 4.28624 22.75 5.83333C22.75 7.38043 22.1969 8.86416 21.2123 9.95812C20.2277 11.0521 18.8924 11.6667 17.5 11.6667C16.1076 11.6667 14.7723 11.0521 13.7877 9.95812C12.8031 8.86416 12.25 7.38043 12.25 5.83333C12.25 4.28624 12.8031 2.80251 13.7877 1.70854C14.7723 0.614582 16.1076 0 17.5 0ZM28.875 1.94444C30.0353 1.94444 31.1481 2.4566 31.9686 3.36823C32.7891 4.27987 33.25 5.51631 33.25 6.80556C33.25 8.0948 32.7891 9.33124 31.9686 10.2429C31.1481 11.1545 30.0353 11.6667 28.875 11.6667C27.7147 11.6667 26.6019 11.1545 25.7814 10.2429C24.9609 9.33124 24.5 8.0948 24.5 6.80556C24.5 5.51631 24.9609 4.27987 25.7814 3.36823C26.6019 2.4566 27.7147 1.94444 28.875 1.94444ZM6.125 1.94444C7.28532 1.94444 8.39812 2.4566 9.21859 3.36823C10.0391 4.27987 10.5 5.51631 10.5 6.80556C10.5 8.0948 10.0391 9.33124 9.21859 10.2429C8.39812 11.1545 7.28532 11.6667 6.125 11.6667C4.96468 11.6667 3.85188 11.1545 3.03141 10.2429C2.21094 9.33124 1.75 8.0948 1.75 6.80556C1.75 5.51631 2.21094 4.27987 3.03141 3.36823C3.85188 2.4566 4.96468 1.94444 6.125 1.94444ZM17.5 2.91667C16.8038 2.91667 16.1361 3.22396 15.6438 3.77094C15.1516 4.31792 14.875 5.05978 14.875 5.83333C14.875 6.60688 15.1516 7.34875 15.6438 7.89573C16.1361 8.44271 16.8038 8.75 17.5 8.75C18.1962 8.75 18.8639 8.44271 19.3562 7.89573C19.8484 7.34875 20.125 6.60688 20.125 5.83333C20.125 5.05978 19.8484 4.31792 19.3562 3.77094C18.8639 3.22396 18.1962 2.91667 17.5 2.91667ZM28.875 4.86111C28.4109 4.86111 27.9658 5.06597 27.6376 5.43063C27.3094 5.79528 27.125 6.28986 27.125 6.80556C27.125 7.32125 27.3094 7.81583 27.6376 8.18048C27.9658 8.54514 28.4109 8.75 28.875 8.75C29.3391 8.75 29.7842 8.54514 30.1124 8.18048C30.4406 7.81583 30.625 7.32125 30.625 6.80556C30.625 6.28986 30.4406 5.79528 30.1124 5.43063C29.7842 5.06597 29.3391 4.86111 28.875 4.86111ZM6.125 4.86111C5.66087 4.86111 5.21575 5.06597 4.88756 5.43063C4.55938 5.79528 4.375 6.28986 4.375 6.80556C4.375 7.32125 4.55938 7.81583 4.88756 8.18048C5.21575 8.54514 5.66087 8.75 6.125 8.75C6.58913 8.75 7.03425 8.54514 7.36244 8.18048C7.69062 7.81583 7.875 7.32125 7.875 6.80556C7.875 6.28986 7.69062 5.79528 7.36244 5.43063C7.03425 5.06597 6.58913 4.86111 6.125 4.86111Z" fill="#085E7D"/>
</svg>
